HIERARCHY
ROOT Hips
{
	OFFSET 0.000000 83.214638 0.000000
	CHANNELS 6 Xposition Yposition Zposition Xrotation Yrotation Zrotation
	JOINT Pelvis
	{
		OFFSET 0.000000 0.000000 0.000000
		CHANNELS 3 Xrotation Yrotation Zrotation
		JOINT LeftUpLeg
		{
			OFFSET 8.479700 -4.795502 -0.379100
			CHANNELS 3 Xrotation Yrotation Zrotation
			JOINT LeftLeg
			{
				OFFSET 0.024144 -32.555107 0.112900
				CHANNELS 3 Xrotation Yrotation Zrotation
				JOINT LeftFoot
				{
					OFFSET -0.024144 -32.638630 -3.012600
					CHANNELS 3 Xrotation Yrotation Zrotation
					JOINT LeftToeBase
					{
						OFFSET 0.970200 -13.225400 11.864200
						CHANNELS 3 Xrotation Yrotation Zrotation
						End Site
						{
							OFFSET 0.000000 12.319262 0.000000
						}
					}
					JOINT LFootTongue
					{
						OFFSET 1.142400 -1.059800 6.665200
						CHANNELS 3 Xrotation Yrotation Zrotation
						End Site
						{
							OFFSET 0.000000 12.319262 0.000000
						}
					}
				}
				JOINT LeftPantLeg
				{
					OFFSET 0.918482 -16.533964 -2.284700
					CHANNELS 3 Xrotation Yrotation Zrotation
					End Site
					{
						OFFSET 0.350399 24.744368 0.000000
					}
				}
			}
		}
		JOINT RightUpLeg
		{
			OFFSET -8.479700 -4.795502 -0.379100
			CHANNELS 3 Xrotation Yrotation Zrotation
			JOINT RightLeg
			{
				OFFSET -0.023144 -32.555092 0.112900
				CHANNELS 3 Xrotation Yrotation Zrotation
				JOINT RightFoot
				{
					OFFSET 0.023144 -32.638641 -3.012700
					CHANNELS 3 Xrotation Yrotation Zrotation
					JOINT RightToeBase
					{
						OFFSET -0.970200 -13.225400 11.864200
						CHANNELS 3 Xrotation Yrotation Zrotation
						End Site
						{
							OFFSET 0.000000 12.319244 0.000000
						}
					}
					JOINT RFootTongue
					{
						OFFSET -1.142200 -1.059800 6.665200
						CHANNELS 3 Xrotation Yrotation Zrotation
						End Site
						{
							OFFSET 0.000000 12.319243 0.000000
						}
					}
				}
				JOINT RightPantLeg
				{
					OFFSET -0.919482 -16.533978 -2.284800
					CHANNELS 3 Xrotation Yrotation Zrotation
					End Site
					{
						OFFSET -0.350400 24.744419 0.000000
					}
				}
			}
		}
	}
	JOINT Spine
	{
		OFFSET 0.000000 7.722000 1.166200
		CHANNELS 3 Xrotation Yrotation Zrotation
		JOINT Spine1
		{
			OFFSET 0.000000 12.024101 0.248800
			CHANNELS 3 Xrotation Yrotation Zrotation
			JOINT Spine2
			{
				OFFSET 0.000000 11.502998 -0.491200
				CHANNELS 3 Xrotation Yrotation Zrotation
				JOINT Neck
				{
					OFFSET 0.000000 18.430702 -3.123100
					CHANNELS 3 Xrotation Yrotation Zrotation
					JOINT Head
					{
						OFFSET 0.000000 9.051102 1.034000
						CHANNELS 3 Xrotation Yrotation Zrotation
						JOINT HairB
						{
							OFFSET 0.208400 24.786102 24.822300
							CHANNELS 3 Xrotation Yrotation Zrotation
							End Site
							{
								OFFSET 0.000000 32.263779 0.000000
							}
						}
						JOINT HairA
						{
							OFFSET -7.081100 24.428299 23.196600
							CHANNELS 3 Xrotation Yrotation Zrotation
							End Site
							{
								OFFSET 0.000000 32.263779 0.000000
							}
						}
						JOINT Hat
						{
							OFFSET 16.728800 15.048294 -15.439601
							CHANNELS 3 Xrotation Yrotation Zrotation
							End Site
							{
								OFFSET 0.000000 32.263779 0.000000
							}
						}
					}
				}
				JOINT LeftShoulder
				{
					OFFSET 6.197800 13.665199 -4.064700
					CHANNELS 3 Xrotation Yrotation Zrotation
					JOINT LeftArm
					{
						OFFSET 7.778100 -0.187103 -1.709300
						CHANNELS 3 Xrotation Yrotation Zrotation
						JOINT LeftForeArm
						{
							OFFSET 22.049376 0.000000 0.000000
							CHANNELS 3 Xrotation Yrotation Zrotation
							JOINT LeftHand
							{
								OFFSET 23.009392 0.000000 0.000000
								CHANNELS 3 Xrotation Yrotation Zrotation
								JOINT LeftHandThumb1
								{
									OFFSET 3.507191 -2.063065 3.133727
									CHANNELS 3 Xrotation Yrotation Zrotation
									JOINT LeftHandThumb2
									{
										OFFSET 3.101337 -1.790558 1.790558
										CHANNELS 3 Xrotation Yrotation Zrotation
										JOINT LeftHandThumb3
										{
											OFFSET 3.058640 -1.765907 1.765906
											CHANNELS 3 Xrotation Yrotation Zrotation
											End Site
											{
												OFFSET -0.415260 3.926476 -0.049563
											}
										}
									}
								}
								JOINT LeftHandIndex1
								{
									OFFSET 11.334419 -0.901459 3.706815
									CHANNELS 3 Xrotation Yrotation Zrotation
									JOINT LeftHandIndex2
									{
										OFFSET 3.283112 0.000000 0.000000
										CHANNELS 3 Xrotation Yrotation Zrotation
										JOINT LeftHandIndex3
										{
											OFFSET 3.323853 0.000000 0.000000
											CHANNELS 3 Xrotation Yrotation Zrotation
											End Site
											{
												OFFSET -1.135597 3.097809 0.402452
											}
										}
									}
								}
								JOINT LeftHandMiddle1
								{
									OFFSET 11.335861 0.000000 0.000000
									CHANNELS 3 Xrotation Yrotation Zrotation
									JOINT LeftHandMiddle2
									{
										OFFSET 3.410492 0.000000 0.000000
										CHANNELS 3 Xrotation Yrotation Zrotation
										JOINT LeftHandMiddle3
										{
											OFFSET 3.312172 0.000000 0.000000
											CHANNELS 3 Xrotation Yrotation Zrotation
											End Site
											{
												OFFSET -1.150200 3.080154 0.400270
											}
										}
									}
								}
								JOINT LeftHandRing1
								{
									OFFSET 11.514786 -0.013176 -3.003090
									CHANNELS 3 Xrotation Yrotation Zrotation
									JOINT LeftHandRing2
									{
										OFFSET 3.053307 0.000000 0.000000
										CHANNELS 3 Xrotation Yrotation Zrotation
										JOINT LeftHandRing3
										{
											OFFSET 3.295807 0.000000 0.000000
											CHANNELS 3 Xrotation Yrotation Zrotation
											End Site
											{
												OFFSET -1.281006 3.013344 0.375733
											}
										}
									}
								}
								JOINT LeftHandPinky1
								{
									OFFSET 10.518692 -0.960396 -5.730441
									CHANNELS 3 Xrotation Yrotation Zrotation
									JOINT LeftHandPinky2
									{
										OFFSET 2.861649 0.000000 0.000000
										CHANNELS 3 Xrotation Yrotation Zrotation
										JOINT LeftHandPinky3
										{
											OFFSET 2.863380 0.000000 0.000000
											CHANNELS 3 Xrotation Yrotation Zrotation
											End Site
											{
												OFFSET -0.843597 2.711159 0.369971
											}
										}
									}
								}
							}
							JOINT LSleeve
							{
								OFFSET 6.676277 -0.344902 -1.011730
								CHANNELS 3 Xrotation Yrotation Zrotation
								End Site
								{
									OFFSET 0.000000 14.885353 0.000000
								}
							}
						}
					}
				}
				JOINT RightShoulder
				{
					OFFSET -6.197800 13.665199 -4.064700
					CHANNELS 3 Xrotation Yrotation Zrotation
					JOINT RightArm
					{
						OFFSET -7.778100 -0.187103 -1.709300
						CHANNELS 3 Xrotation Yrotation Zrotation
						JOINT RightForeArm
						{
							OFFSET -22.049376 0.000000 0.000000
							CHANNELS 3 Xrotation Yrotation Zrotation
							JOINT RightHand
							{
								OFFSET -23.009392 0.000000 0.000000
								CHANNELS 3 Xrotation Yrotation Zrotation
								JOINT RightHandThumb1
								{
									OFFSET -3.507191 -2.063065 3.133727
									CHANNELS 3 Xrotation Yrotation Zrotation
									JOINT RightHandThumb2
									{
										OFFSET -3.101337 -1.790558 1.790558
										CHANNELS 3 Xrotation Yrotation Zrotation
										JOINT RightHandThumb3
										{
											OFFSET -3.058640 -1.765907 1.765906
											CHANNELS 3 Xrotation Yrotation Zrotation
											End Site
											{
												OFFSET 0.415260 3.926476 -0.049563
											}
										}
									}
								}
								JOINT RightHandIndex1
								{
									OFFSET -11.334419 -0.901459 3.706815
									CHANNELS 3 Xrotation Yrotation Zrotation
									JOINT RightHandIndex2
									{
										OFFSET -3.283112 0.000000 0.000000
										CHANNELS 3 Xrotation Yrotation Zrotation
										JOINT RightHandIndex3
										{
											OFFSET -3.323853 0.000000 0.000000
											CHANNELS 3 Xrotation Yrotation Zrotation
											End Site
											{
												OFFSET 1.135597 3.097809 0.402452
											}
										}
									}
								}
								JOINT RightHandMiddle1
								{
									OFFSET -11.335861 0.000000 0.000000
									CHANNELS 3 Xrotation Yrotation Zrotation
									JOINT RightHandMiddle2
									{
										OFFSET -3.410492 0.000000 0.000000
										CHANNELS 3 Xrotation Yrotation Zrotation
										JOINT RightHandMiddle3
										{
											OFFSET -3.312172 0.000000 0.000000
											CHANNELS 3 Xrotation Yrotation Zrotation
											End Site
											{
												OFFSET 1.150200 3.080154 0.400270
											}
										}
									}
								}
								JOINT RightHandRing1
								{
									OFFSET -11.514786 -0.013176 -3.003090
									CHANNELS 3 Xrotation Yrotation Zrotation
									JOINT RightHandRing2
									{
										OFFSET -3.053307 0.000000 0.000000
										CHANNELS 3 Xrotation Yrotation Zrotation
										JOINT RightHandRing3
										{
											OFFSET -3.295807 0.000000 0.000000
											CHANNELS 3 Xrotation Yrotation Zrotation
											End Site
											{
												OFFSET 1.281006 3.013344 0.375733
											}
										}
									}
								}
								JOINT RightHandPinky1
								{
									OFFSET -10.518692 -0.960396 -5.730441
									CHANNELS 3 Xrotation Yrotation Zrotation
									JOINT RightHandPinky2
									{
										OFFSET -2.861649 0.000000 0.000000
										CHANNELS 3 Xrotation Yrotation Zrotation
										JOINT RightHandPinky3
										{
											OFFSET -2.863380 0.000000 0.000000
											CHANNELS 3 Xrotation Yrotation Zrotation
											End Site
											{
												OFFSET 0.843597 2.711159 0.369971
											}
										}
									}
								}
							}
							JOINT RSleeve
							{
								OFFSET -6.676277 -0.344902 -1.011730
								CHANNELS 3 Xrotation Yrotation Zrotation
								End Site
								{
									OFFSET 0.000000 14.885353 0.000000
								}
							}
						}
					}
				}
				JOINT Backpack
				{
					OFFSET 0.000000 -2.471497 36.677502
					CHANNELS 3 Xrotation Yrotation Zrotation
					End Site
					{
						OFFSET 0.000000 20.427315 0.000000
					}
				}
				JOINT Hood
				{
					OFFSET 0.000000 18.754097 -10.431000
					CHANNELS 3 Xrotation Yrotation Zrotation
					JOINT Hood1
					{
						OFFSET 0.000000 -5.011002 -7.685901
						CHANNELS 3 Xrotation Yrotation Zrotation
						End Site
						{
							OFFSET 0.000000 9.175140 0.000000
						}
					}
				}
				JOINT LHoodieString
				{
					OFFSET 5.250500 16.397697 3.089900
					CHANNELS 3 Xrotation Yrotation Zrotation
					JOINT LHoodieString1
					{
						OFFSET 0.257700 -6.364304 3.694600
						CHANNELS 3 Xrotation Yrotation Zrotation
						JOINT LHoodieString2
						{
							OFFSET 0.000000 -9.643799 2.679100
							CHANNELS 3 Xrotation Yrotation Zrotation
							End Site
							{
								OFFSET 0.000000 10.009018 0.000000
							}
						}
					}
				}
				JOINT RHoodieString
				{
					OFFSET -5.250500 16.397697 3.089900
					CHANNELS 3 Xrotation Yrotation Zrotation
					JOINT RHoodieString1
					{
						OFFSET -0.257700 -6.364304 3.694600
						CHANNELS 3 Xrotation Yrotation Zrotation
						JOINT RHoodieString2
						{
							OFFSET 0.000000 -9.643799 2.679100
							CHANNELS 3 Xrotation Yrotation Zrotation
							End Site
							{
								OFFSET 0.000000 10.009018 0.000000
							}
						}
					}
				}
			}
			JOINT LBackpack_Strap
			{
				OFFSET 15.223200 -7.719803 -6.610900
				CHANNELS 3 Xrotation Yrotation Zrotation
				End Site
				{
					OFFSET 0.000000 16.040596 0.000000
				}
			}
			JOINT RBackpack_Strap
			{
				OFFSET -15.223000 -7.719803 -6.610900
				CHANNELS 3 Xrotation Yrotation Zrotation
				End Site
				{
					OFFSET 0.000000 16.040596 0.000000
				}
			}
		}
	}
	JOINT BoyFacialAnim_Joint
	{
		OFFSET 1.000000 -82.208099 -1.550900
		CHANNELS 3 Xrotation Yrotation Zrotation
		End Site
		{
			OFFSET 0.000000 30.012791 0.000000
		}
	}
}
MOTION
Frames: 4
Frame Time: 0.033333
-0.108355 72.983879 -0.313209 -0.252380 -0.002201 -1.122255 -0.000000 -0.000000 -0.000000 -37.206100 1.605421 26.159177 48.930693 -4.755132 -8.392806 -11.646665 -8.200159 -9.511027 0.000000 0.000000 -0.000000 0.000000 0.000000 -0.000000 -0.000001 -0.000001 0.000000 -40.356600 -11.992435 -22.323027 49.578704 5.932821 -2.720625 -10.778660 3.392142 12.150627 -0.000000 0.000000 -0.000000 -0.000000 0.000000 -0.000000 -0.000001 -0.000000 -0.000000 16.586559 0.268475 0.410972 20.119541 0.469852 0.900696 12.592132 0.364575 0.927906 2.990523 -0.915399 0.127495 -21.725478 3.041512 -1.451454 0.000000 0.000000 -0.000000 0.000000 0.000000 -0.000000 0.000000 0.000000 -0.000000 20.441949 -17.629302 8.703925 -33.570171 -17.336514 -36.862261 -2.640531 -52.136200 -20.395488 -54.784121 -19.506921 -15.020208 36.774538 8.584265 -16.863121 2.295262 23.044206 15.130548 0.000001 0.000001 0.000001 0.652353 9.453938 -24.543694 0.393115 2.026189 -21.957667 -0.000003 0.000000 -0.000004 0.652333 9.453942 -24.543701 0.393120 2.026189 -21.957663 0.000004 -0.000002 -0.000000 0.652299 9.453779 -24.541969 0.393052 2.026039 -21.955962 -0.000002 0.000001 -0.000000 0.643621 9.449200 -24.541290 0.384724 2.021090 -21.956374 0.000001 0.000002 0.000000 0.000002 0.000002 -0.000000 18.311846 13.497347 -7.979213 -29.297205 10.275798 43.682536 -39.182449 60.008799 40.506147 -15.081116 -0.977409 14.319023 40.081729 0.947140 20.754303 5.156691 -21.101670 -19.113707 -0.000002 0.000001 0.000002 18.327822 0.099120 38.977977 -3.924263 9.265817 32.256255 -0.000001 -0.000003 0.000001 -3.492536 -2.447892 34.024512 0.778396 -2.790419 31.036981 0.000003 0.000000 -0.000000 -12.757991 -10.091660 31.800992 -8.974653 -8.729465 30.664155 -0.000001 -0.000000 0.000002 -16.765423 -2.967984 36.666337 0.750493 -2.749774 30.591420 0.000000 -0.000001 0.000002 -0.000001 -0.000004 0.000002 0.000001 0.000000 -0.000000 0.000001 0.000000 -0.000000 0.000001 0.000000 -0.000000 0.000001 0.000000 -0.000000 0.000001 0.000000 -0.000000 0.000001 -0.000000 -0.000000 0.000001 0.000000 -0.000000 0.000001 0.000000 -0.000000 0.000001 -0.000000 -0.000000 -0.000001 0.000000 0.000000 -0.000001 0.000000 0.000000 -0.000000 -0.000000 -0.000000 
-0.099903 72.981003 -0.319552 -0.234413 -0.056881 -1.075923 0.000000 0.000000 0.000000 -37.177276 1.576767 26.109587 48.935638 -4.659164 -8.425062 -11.660202 -8.193844 -9.530877 -0.000000 0.000000 -0.000000 -0.000000 0.000000 -0.000000 -0.000001 0.000001 -0.000000 -40.436199 -11.986442 -22.394285 49.595933 6.032561 -2.702219 -10.761585 3.402554 12.109061 0.000000 -0.000000 0.000000 0.000000 -0.000000 0.000000 0.000001 0.000001 -0.000000 16.552619 0.225229 0.450886 20.092157 0.434329 0.944658 12.565231 0.332963 0.972628 2.991713 -1.151403 0.172283 -21.587457 1.955582 -1.316443 0.000003 0.000000 0.000000 0.000003 0.000000 0.000000 0.000003 0.000000 0.000000 20.424765 -17.643343 8.647961 -33.465007 -17.283584 -36.844557 -2.642280 -52.165488 -20.397696 -54.784124 -19.506921 -15.020206 36.762694 8.568924 -16.867734 2.296277 23.050743 15.131681 0.000001 0.000001 -0.000001 0.650125 9.449105 -24.487188 0.392090 2.023653 -21.928707 -0.000003 0.000001 -0.000002 0.653015 9.455409 -24.560868 0.392101 2.023654 -21.928696 0.000004 -0.000001 -0.000002 0.655827 9.461393 -24.631037 0.392036 2.023498 -21.926989 -0.000001 -0.000001 -0.000001 0.648625 9.459961 -24.667238 0.383693 2.018548 -21.927416 0.000004 0.000001 -0.000000 -0.000000 0.000003 -0.000001 18.296789 13.380867 -7.992645 -29.274997 10.479044 43.659225 -39.159991 59.992864 40.480233 -15.247451 -0.967754 14.384040 40.081732 0.947126 20.754298 5.156696 -21.101668 -19.113697 -0.000002 0.000000 0.000002 18.327829 0.099121 38.977977 -3.924271 9.265838 32.256262 -0.000000 0.000001 0.000000 -3.488057 -2.445600 34.031848 0.778808 -2.791106 31.045617 0.000006 0.000000 0.000003 -12.757999 -10.091665 31.801002 -8.974643 -8.729462 30.664138 0.000002 -0.000001 0.000000 -16.766000 -2.970826 36.673277 0.751144 -2.750874 30.604920 -0.000000 -0.000000 0.000000 0.000002 0.000003 -0.000000 0.000000 -0.000000 -0.000000 0.000000 -0.000000 -0.000000 0.000000 -0.000000 -0.000000 0.000000 -0.000000 -0.000000 0.000000 -0.000000 -0.000000 -0.000001 0.000000 -0.000000 0.000000 -0.000000 -0.000000 0.000000 -0.000000 -0.000000 -0.000001 0.000000 -0.000000 0.000003 -0.000000 -0.000000 0.000003 -0.000000 -0.000000 0.000000 0.000000 0.000000 
-0.085181 72.975243 -0.332034 -0.200209 -0.139215 -1.005096 0.000000 -0.000000 0.000000 -37.158398 1.547793 26.010559 48.959318 -4.508864 -8.423806 -11.686838 -8.179882 -9.579469 0.000000 0.000000 0.000000 0.000000 0.000000 0.000000 0.000001 0.000001 0.000000 -40.567208 -11.971830 -22.509629 49.622076 6.181347 -2.663662 -10.730590 3.419518 12.043603 0.000000 -0.000000 -0.000000 0.000000 -0.000000 -0.000000 0.000001 -0.000001 0.000001 16.498679 0.151326 0.513214 20.048606 0.369520 1.020300 12.523011 0.269544 1.046616 2.994730 -1.531781 0.258918 -21.364352 0.280852 -1.081185 0.000001 0.000000 -0.000000 0.000001 0.000000 -0.000000 0.000001 0.000000 -0.000000 20.400332 -17.657518 8.573167 -33.312414 -17.187121 -36.811772 -2.645388 -52.218360 -20.401669 -54.784124 -19.506925 -15.020208 36.728857 8.525063 -16.880937 2.299208 23.069854 15.135103 0.000001 0.000001 -0.000000 0.643723 9.435243 -24.325179 0.389181 2.016389 -21.845766 -0.000004 0.000001 -0.000003 0.654983 9.459651 -24.610514 0.389151 2.016389 -21.845790 0.000007 -0.000001 0.000000 0.666043 9.483271 -24.887249 0.389099 2.016234 -21.844074 -0.000003 0.000001 -0.000000 0.663120 9.490858 -25.029445 0.380771 2.011284 -21.844490 -0.000005 -0.000000 -0.000000 -0.000000 0.000001 0.000001 18.277168 13.222691 -8.013894 -29.242509 10.761867 43.615921 -39.265880 60.050811 40.595964 -15.476396 -0.958577 14.467813 40.081722 0.947112 20.754291 5.156711 -21.101637 -19.113692 -0.000001 -0.000000 0.000003 18.327833 0.099115 38.977953 -3.924281 9.265823 32.256268 0.000002 -0.000002 0.000002 -3.477950 -2.441381 34.057768 0.789310 -2.787633 31.071842 0.000002 0.000000 -0.000002 -12.757990 -10.091662 31.800992 -8.973731 -8.730990 30.670179 0.000001 -0.000002 0.000002 -16.759949 -2.973411 36.693979 0.760756 -2.747428 30.625817 0.000000 -0.000001 0.000002 0.000002 -0.000002 0.000002 0.000003 0.000000 -0.000000 0.000003 0.000000 -0.000000 0.000003 0.000000 -0.000000 0.000003 0.000000 -0.000000 0.000003 0.000000 0.000000 0.000004 0.000000 0.000000 0.000003 0.000000 -0.000000 0.000003 0.000000 0.000000 0.000004 0.000000 0.000000 0.000002 0.000000 0.000000 0.000002 0.000000 0.000000 0.000000 -0.000000 0.000000 
-0.068579 72.967819 -0.348567 -0.156105 -0.213008 -0.939868 0.000000 0.000000 0.000000 -37.189393 1.555085 25.876600 49.008352 -4.367144 -8.323539 -11.720846 -8.158930 -9.659058 -0.000000 0.000000 0.000000 -0.000000 0.000000 -0.000000 -0.000001 -0.000002 -0.000000 -40.699140 -11.936800 -22.622386 49.644083 6.299289 -2.604750 -10.693375 3.436429 11.982932 0.000000 -0.000000 0.000000 0.000000 -0.000000 0.000000 0.000000 0.000001 -0.000000 16.444599 0.069708 0.573273 20.004711 0.291319 1.105322 12.481479 0.194883 1.132429 2.999992 -1.922609 0.381673 -21.145209 -1.299583 -0.821473 0.000001 -0.000000 -0.000000 0.000001 -0.000000 -0.000000 0.000001 -0.000000 -0.000000 20.382309 -17.666730 8.521890 -33.186591 -17.070236 -36.770484 -2.648930 -52.277418 -20.406102 -54.784124 -19.506923 -15.020208 36.675459 8.455977 -16.901803 2.303964 23.100682 15.140624 -0.000003 -0.000001 -0.000001 0.633720 9.413245 -24.068774 0.384576 2.004896 -21.714833 -0.000003 0.000001 -0.000003 0.658134 9.466423 -24.689799 0.384565 2.004897 -21.714841 0.000006 -0.000001 0.000000 0.682492 9.517907 -25.294164 0.384507 2.004742 -21.713151 -0.000001 -0.000002 -0.000001 0.686563 9.539712 -25.604561 0.376185 1.999785 -21.713573 0.000003 0.000001 -0.000000 0.000001 0.000001 0.000002 18.265394 13.113109 -8.034524 -29.221076 10.972648 43.558128 -39.662471 60.273872 41.006192 -15.639726 -0.963749 14.521061 40.082040 0.944983 20.755833 5.159296 -21.109620 -19.112466 -0.000002 -0.000001 0.000002 18.331649 0.104147 38.983807 -3.926976 9.263097 32.273067 -0.000001 0.000001 0.000002 -3.454676 -2.440250 34.088129 0.804442 -2.782304 31.106922 0.000002 0.000000 0.000003 -12.754066 -10.094805 31.817220 -8.967499 -8.732776 30.686623 0.000001 0.000000 0.000000 -16.749878 -2.976881 36.726170 0.774864 -2.742452 30.657174 -0.000003 0.000000 0.000002 0.000002 0.000004 -0.000001 -0.000003 0.000000 -0.000000 -0.000003 0.000000 -0.000000 -0.000003 0.000000 -0.000000 -0.000003 0.000000 -0.000000 -0.000003 0.000000 -0.000000 0.000001 -0.000000 -0.000000 -0.000003 0.000000 -0.000000 -0.000003 0.000000 -0.000000 0.000001 -0.000000 -0.000000 -0.000000 0.000000 -0.000000 -0.000000 0.000000 -0.000000 0.000000 0.000000 0.000000 
